<svg xmlns="http://www.w3.org/2000/svg">
 <!-- Created with SVG-edit - http://svg-edit.googlecode.com/ -->
 <g>
  <title>Layer 1</title>
  <g id="svg_10">
   <path d="m1,-27c0,1 0,2 0,3c0,2 -0.07613,2.61732 -1,3c-1.30656,0.5412 -1,1 -1,1c-1,0 -1.38269,-1.07612 -1,-2c0.5412,-1.30656 0.69344,-2.4588 2,-3c0.92387,-0.38268 1,0 1,0c0,1 0,1 0,2c0,1 0,1 0,2c0,1 0,2 1,2c1,0 1.29289,-0.29289 2,-1c0.70711,-0.70711 2.92387,-0.61732 2,-1c-1.30656,-0.5412 -2,2 -3,3c-2,2 -3,2 -4,2c0,0 -1,0 -1,1c0,0 1,0 2,0c1,0 3,0 4,0c2,0 2,0 3,0c1,0 1.61731,-0.92388 2,0c0.5412,1.30656 -2.0535,1.5405 -4,2c-2.17625,0.51374 -3.69344,2.4588 -5,3c-0.92387,0.38268 -1.29289,-0.70711 -2,0c-0.70711,0.70711 -1,1 -1,2c0,0 0.70711,0.29289 0,1c-0.70711,0.70711 0,0 1,0c1,0 1,0 2,0c1,0 1,0 2,0c1,0 2,0 2,0c2,0 2.29289,0.70711 3,0c0.70711,-0.70711 1.70711,-0.70711 1,0c-0.70711,0.70711 -2,2 -3,3c-1,1 -2.82443,1.09789 -4,3c-1.05147,1.7013 -0.69344,3.4588 -2,4c-1.84776,0.76537 -2,0 -2,-1c0,-1 0,-3 0,-4c0,0 0,-1 -1,-1c-1,0 -1,0 -2,0c-1,0 -1,0 -2,0c0,0 0,-1 0,-1c0,-1 0,-1 0,-3c0,0 0,-1 0,-1c0,-1 0,-1 0,-2c0,0 1,-1 1,-2c0,-1 0,-1 1,-2c0,0 0,-1 0,-1c1,0 0.61731,0.07612 1,1c0.5412,1.30656 2,3 3,4c1,1 1,2 1,2c1,0 2.29289,-0.70711 3,0c0.70711,0.70711 0,1 1,1l0,1l1,0" id="svg_9" stroke-width="5" stroke="#aad4ff" fill="none"/>
   <path d="m-7,7c2,0 3.15224,0.76537 5,0c1.30656,-0.5412 2.82375,-1.48626 5,-2c1.9465,-0.4595 3.69344,-0.4588 5,-1c0.92387,-0.38268 1,-1 2,-1c0,0 1,0 2,0c0,0 1,0 2,0c0,0 0,-1 -1,-1c-1,0 -3,0 -5,1c-2,1 -3,1 -4,2c-1,1 -3,2 -3,2c-1,0 -2,0 -2,1c0,0 2,1 4,1c2,0 4,0 6,0c3,0 5,0 7,0c0,0 0,0 -2,0c-1,0 -3,0 -5,1c-2,1 -4,2 -6,3c-2,1 -2.69344,1.4588 -4,2c-0.92387,0.38268 -1,1 -2,1c0,0 -1,0 -1,0c0,1 1.01498,1.24437 3,1c4.09221,-0.50378 8.37201,-1.38509 12,-4c2.29454,-1.65381 4.29289,-4.29289 5,-5c0.70711,-0.70711 1,0 0,0c-3,0 -4.87856,1.49346 -8,2c-1.97418,0.32037 -4.02675,1.77025 -5,2c-2.17625,0.51374 -3.4588,0.69344 -4,2c-0.38269,0.92388 -1.4588,0.69344 -2,2c-0.38269,0.92388 0,2 0,2c0,1 0,1 -1,2c0,0 0,1 2,1c3,0 7,-2 10,-4c3,-2 6,-4 8,-6c2,-2 3.82375,-2.48626 6,-3c1.9465,-0.4595 3,-1 4,-1c1,0 1,-1 1,-1c-2,1 -6.73116,5.28416 -12,10c-4.77115,4.27038 -11.9503,9.06024 -18,14c-4.95976,4.04979 -10.22273,6.72398 -14,10c-2.13675,1.8532 -3,2 -4,2c-1,0 -0.29289,0.29289 -1,1c-0.70711,0.70711 -2,0 -2,0c0,0 2.02583,0.32036 4,0c3.12144,-0.50655 5.21167,-1.71413 8,-4c1.09367,-0.89659 2.71413,-3.21167 5,-6c1.7932,-2.18734 4,-5 6,-7c1,-1 2,-2 2,-2c1,0 1,-1 1,0c0,1 -1.71413,3.21168 -4,6c-2.68979,3.28101 -3.69344,5.4588 -5,6c-0.92387,0.38269 0.0535,0.4595 2,0c2.17625,-0.51375 4.46446,-4.46446 8,-8c3.53554,-3.53554 7.22273,-6.72399 11,-10c3.20512,-2.77979 6,-5 8,-7c1,-1 2,-2 1,-2c-1,0 -1.21167,3.71412 -4,6c-3.28101,2.68979 -7.07645,5.94379 -10,10c-1.84901,2.56538 -1.69344,4.4588 -3,5c-0.92387,0.38268 -2,0 -2,0c0,0 1.70546,-1.34619 4,-3c1.814,-1.30745 3,-3 4,-4c1,-1 2,-2 2,-2c0,-1 0,-1 0,-1c0,2 0.29454,3.34619 -2,5c-1.814,1.30745 -4.29869,1.82108 -6,5c-0.94371,1.76335 -1,4 -2,5c-1,1 -2,0 -2,1c0,1 1.81265,-1.2068 4,-3c2.78833,-2.28588 5.51929,-4.55819 8,-8c1.30745,-1.814 2.69255,-5.186 4,-7c0.8269,-1.14727 1,-2 1,-2c1,-1 1.66251,0.31001 0,3c-0.7435,1.203 -3.71413,4.21168 -6,7c-0.89659,1.09367 -3.29289,0.29289 -4,1c-0.70711,0.70711 0,2 1,2c2,0 2,0 4,0c1,0 2.186,-0.69255 4,-2c1.14726,-0.8269 2,-1 2,-1c0,1 0,3 0,3c0,1 -0.69344,1.4588 -2,2c-0.92387,0.38268 -2,-1 -2,0c0,2 3,0 4,0c1,0 1.29289,0.70711 2,0c0.70711,-0.70711 0,0 0,0c0,1 0,1 0,2c0,0 0,1 -1,1c0,0 -1,0 -2,0c-1,0 -2,0 -3,0c-1,0 -2,0 -3,0c-1,0 -2,0 -3,0c-1,0 -2,0 -2,0c-1,0 -2,0 -1,0c1,0 2.82375,-0.48625 5,-1c1.9465,-0.4595 4,-1 4,-1c1,0 1,0 0,0c-1,0 -2,-1 -2,-1c-1,0 -2,0 -4,0c-1,0 -3.15224,0.76537 -5,0c-1.30656,-0.5412 -2.58578,0.41422 -4,-1c-0.70711,-0.70711 -2,-1 -2,-1c-1,-1 -1.29289,-1.29289 -2,-2c-0.70711,-0.70711 -2,0 -2,0c0,-1 -1,-1 -1,-1c0,-1 0,-1 0,-2c0,-1 -1,-2 -1,-3c0,-2 0,-3 0,-5c0,0 -0.82443,-0.09789 -2,-2c-0.52573,-0.85065 0,-1 0,-1c-1,-1 -2,-1 -3,-1c0,0 -1.4588,0.69344 -2,2c-1.14806,2.77164 0,5 0,8c0,1 0,2 0,2c0,1 0,1 0,2c0,0 1,1 2,1c0,0 -0.70711,0.29289 0,1c0.70711,0.70711 2,0 2,1l1,0l0,0" id="svg_8" stroke-width="5" stroke="#ffff56" fill="none"/>
   <path d="m-3,3c0,0 0,1 0,1c0,1 0,1 0,2c0,1 0,2 0,2c0,1 0,1 0,2c0,0 0,1 0,2c0,0 -1,1 -2,2c0,0 0.30656,0.4588 -1,1c-0.92387,0.38268 -2.29289,0.29289 -3,1c-0.70711,0.70711 0,2 -1,2c-1,0 -1.29289,1.29289 -2,2c-0.70711,0.70711 -0.29289,0.29289 -1,1c-0.70711,0.70711 -1,0 -1,1c0,0 0,2 0,2c0,1 0,1 0,2c0,1 0,1 0,2c0,1 0,1 0,2c0,0 0,1 1,1c1,0 1,1 1,1c1,1 1.29289,1.29289 2,2c0.70711,0.70711 0.29289,1.29289 1,2c0.70711,0.70711 1.29289,0.29289 2,1c0.70711,0.70711 1.82375,0.48625 4,1c1.9465,0.4595 3,0 4,0c2,0 3,0 5,0c2,0 2,0 4,0c0,0 0.69344,0.4588 2,1c0.92387,0.38269 2,0 2,0c1,0 2,0 2,0c2,0 3.58578,1.41422 5,0c0.70711,-0.70711 0.61731,-2.07613 1,-3c0.5412,-1.30656 1,-3 1,-4c0,-1 1,-2 1,-2c0,-1 0,-1 0,-2c0,-1 0,-2 0,-3c0,0 0,-1 0,-1c0,-1 0,-2 0,-2c0,-1 0,-1 0,-2c0,0 0,-1 0,-1c0,-1 -1,-2 -1,-3c0,0 0,-1 0,-1c-1,-1 -2,-1 -2,-1c0,0 -1,0 -2,-1c0,0 0,0 -1,0c-1,0 -2,0 -2,0c-1,0 -2,0 -2,-1c0,0 -0.61731,-0.07612 -1,-1c-0.5412,-1.30656 -1,-1 -1,-1c0,-1 -1.29289,-0.29289 -2,-1c-0.70711,-0.70711 0,-1 0,-2c0,0 0,-1 0,-2c0,0 0,-1 0,-1l0,-1l0,0" id="svg_1" stroke-width="5" stroke="#000000" fill="none"/>
   <path stroke="#000000" d="m-7,5c0,0 0.69299,-1.4588 2,-2c1.84801,-0.7654 3.82401,-1.4863 6,-2c2.92,-0.6893 3.853,-1.1731 5,-2c1.814,-1.3074 3,-1 4,-2c0,0 -0.707,-0.2929 0,-1c0.707,-0.7071 2,0 2,-1l0,0" id="svg_2" stroke-width="5" fill="none"/>
   <path d="m-5,-9c0,0 2,0 2,0c2,0 3,0 4,0c2,0 3,0 3,0c0,-1 1,-1 2,-1c0,0 1.29289,0.70711 2,0c0.70711,-0.70711 0,-2 1,-2l0,-1l1,0" id="svg_3" stroke-width="5" stroke="#000000" fill="none"/>
   <path d="m-9,-18c1,0 2,0 3,0c1,0 3,0 4,0c1,0 2,0 3,0c1,0 2,0 3,0c1,0 2,0 2,-1c0,0 0,-1 1,-1c1,0 1,-1 1,-1c0,0 1,0 2,-1l0,0" id="svg_4" stroke-width="5" stroke="#000000" fill="none"/>
   <path d="m1,-27c0,-1 0,-2 0,-2l0,-1" id="svg_6" stroke-width="5" stroke="#000000" fill="none"/>
   <path d="m4,4c0,1 0,1 0,2c0,1 0,1 0,2c0,1 0,1 0,2c0,0 0,1 0,2c0,1 0,1 0,2c0,1 0,2 0,2c0,1 0,2 0,2c0,1 0,1 0,2c0,0 0,1 0,1c0,0 -1,1 -2,1c-1,0 -2.07613,-0.38268 -3,0c-1.30656,0.5412 -1.69344,1.4588 -3,2c-0.92387,0.38268 -1,0 -1,0c2,0 3,0 4,0c2,0 3,0 5,0c0,0 1,0 2,0c0,0 1,0 2,0c0,0 1,0 2,0l0,0" id="svg_7" stroke-width="5" stroke="#000000" fill="none"/>
  </g>
 </g>
</svg>