<svg xmlns="http://www.w3.org/2000/svg" overflow="visible">
 <!-- Created with SVG-edit - http://svg-edit.googlecode.com/ -->
 <g id="camara">
 <g transform="translate(-100,-140)">
  <title>Layer 1</title>
  <path d="m68,135c-1,0 -1,0 -1,1c0,1 0,1 0,2c0,0 0,1 0,1c-1,1 -1,2 -1,3c0,0 -1,1 -1,1c0,1 0,1 0,2c0,0 0,1 0,2c0,1 0,1 0,2c0,1 0,1 0,2c0,0 0,1 0,1c0,1 1,1 2,1c1,0 2,0 2,0c1,0 2,0 2,0c1,0 3,0 3,0c2,0 3,0 5,0c1,0 3,0 4,0c2,0 3,0 6,0c2,0 4,0 5,0c2,0 2.8237,-0.48599 5,-1c0.9733,-0.23 2.293,0.707 3,0c0.707,-0.707 1,-1 2,-1c0,0 1,0 2,0c0,0 1,0 2,0c0,0 0,-1 0,-2c0,-1 0,-3 0,-4c0,-1 0,-2 0,-3c0,-2 0,-2 0,-3c0,0 0,-1 0,-1c0,-1 0,-1 0,-2c0,-1 0,-1 0,-2c0,0 0,-1 0,-1c0,-1 -0.076,-0.617 -1,-1c-1.307,-0.541 -1,-1 -2,-1c-1,0 -1,0 -2,0c-1,0 -1,0 -2,0c-2,0 -2,0 -4,0c0,0 -2,0 -3,0c-1,0 -3,0 -4,0c-1,0 -2,0 -4,0c0,0 -2,0 -2,0c-1,0 -2,0 -3,0c-1,0 -1,0 -3,0c0,0 -1,0 -2,0c-1,0 -2,0 -3,0c-1,0 -2,0 -2,0c-1,0 -2,0 -2,0c-1,0 -2,0 -2,0l-1,0" id="svg_5" stroke-width="5" stroke="#000000" fill="#76f2b2"/>
  <path d="m76,127c0,-1 0,-2 0,-3c0,-1 0,-2 0,-2c0,-1 0,-2 0,-2c0,-2 0,-2 0,-3c0,0 0,-1 0,-2c0,0 0,0 1,0c1,0 2,0 3,0c2,0 4,0 4,0c2,0 4,0 5,0c2,0 3,0 4,0c0,0 2,0 2,0c1,0 2,0 2,0c1,0 1,0 1,1c0,0 0,1 0,2c0,1 0,2 0,2c0,1 0,2 0,3c0,0 0,1 0,2c0,0 0,1 0,1l0,1l0,0" id="svg_6" stroke-width="5" stroke="#000000" fill="#ffaa56"/>
  <path d="m97,140c0,0 -1,0 -2,0c0,0 0,1 0,2c0,0 0,1 0,1c0,1 0,1 0,2c0,0 0,1 0,1c1,0 2,0 2,0c1,0 2,0 2,0c1,0 2,0 2,-1c0,0 0,-1 0,-1c0,-1 0,-1 0,-2c0,0 0,-1 0,-2l0,0" id="svg_7" stroke-width="5" stroke="#000000" fill="none"/>
 </g>
 </g>
</svg>