<svg xmlns="http://www.w3.org/2000/svg" xmlns:xlink="http://www.w3.org/1999/xlink">
<g id="camara">
	<path style="stroke: #ffffff; fill: #ffffff; opacity: 0.5; display: block;"
		stroke="#ffffff" fill="#ffffff" opacity="0.5"
		d="M125.285 277.044 L-133.092 473.140 L383.662 473.140 z" transform=""></path>
	<path style="stroke: #ffffff; stroke-width: 4px; fill: none; display: block;"
		stroke="#ffffff" stroke-width="4" fill="none"
		d="M125.285 237.044 L119.585 237.044 L119.585 253.644 L115.785 253.644 L115.785 270.044 L134.785 270.044 L134.785 253.644 L130.985 253.644 L130.985 237.044 z"
		transform=""></path>
	<path style="stroke: #5bb9e8; fill: #5bb9e8; display: block;"
		stroke="#5bb9e8" fill="#5bb9e8"
		d="M125.285 237.044 L119.585 237.044 L119.585 253.644 L115.785 253.644 L115.785 270.044 L134.785 270.044 L134.785 253.644 L130.985 253.644 L130.985 237.044 z"
		transform=""></path>
	<path style="stroke: #b8e1ec; fill: #b8e1ec; display: block;"
		stroke="#b8e1ec" fill="#b8e1ec"
		d="M122.285 237.044 L119.585 237.044 L119.585 253.644 L115.785 253.644 L115.785 270.044 L122.285 270.044 z"
		transform=""></path>
	<path style="stroke: #010101; fill: none; display: block;" stroke="#010101"
		fill="none"
		d="M125.285 237.044 L119.585 237.044 L119.585 253.644 L115.785 253.644 L115.785 270.044 L134.785 270.044 L134.785 253.644 L130.985 253.644 L130.985 237.044 z"
		transform=""></path>
	<rect x="107.78473804100203" y="231.04441913439624" width="35"
		height="12" fill="none" stroke="#ffffff"
		style="stroke: #ffffff; stroke-width: 3px; fill: none; display: block;"
		stroke-width="3"
		transform=""></rect>
	<rect x="107.78473804100203" y="231.04441913439624" width="35"
		height="12" fill="#9bddf2" stroke="#0a0b0a"
		style="fill: #9bddf2; stroke: #0a0b0a; stroke-width: 1px; display: block;"
		stroke-width="1"
		transform=""></rect>
	<circle cx="113.78473804100186" cy="237.04441913439618" r="3.5"
		fill="#ffffff" stroke="none" style="fill: #ffffff; stroke: none; display: block;"
		transform=""></circle>
	<path style="stroke: #000000; stroke-width: 2px; fill: none; display: none;"
		stroke="#000000" stroke-width="2" fill="none" d="M0.000 0.000 L10.000 10.000"></path>
	<circle cx="0" cy="0" r="30" fill="#469cda" stroke="#000000"
		style="stroke: #000000; fill: #469cda; opacity: 0.5; display: none;"
		opacity="0.5"></circle>
	<path style="stroke: #ffffff; stroke-width: 4px; fill: none; display: block;"
		stroke="#ffffff" stroke-width="4" fill="none"
		d="M116.535 447.419 A22.500 22.500 0 0 1 105.785 439.419" transform=""></path>
	<path style="stroke: #6b6b6b; stroke-width: 2px; fill: none; display: block;"
		stroke="#6b6b6b" stroke-width="2" fill="none"
		d="M116.535 447.419 A22.500 22.500 0 0 1 105.785 439.419" transform=""></path>
	<circle cx="125.28473804100182" cy="448.9194131434284" r="7.5"
		fill="none" stroke="#ffffff"
		style="stroke: #ffffff; stroke-width: 4px; display: block;"
		stroke-width="4"
		transform=""></circle>
	<circle cx="125.28473804100182" cy="448.9194131434284" r="7.5"
		fill="#dfe1e1" stroke="#6b6b6b"
		style="stroke: #6b6b6b; fill: #dfe1e1; stroke-width: 2px; display: block;"
		stroke-width="2"
		transform=""></circle>
	<path style="stroke: #ffffff; stroke-width: 4px; fill: none; display: block;"
		stroke="#ffffff" stroke-width="4" fill="none"
		d="M134.035 447.419 A22.500 22.500 0 0 0 144.785 439.419" transform=""></path>
	<path style="stroke: #6b6b6b; stroke-width: 2px; fill: none; display: block;"
		stroke="#6b6b6b" stroke-width="2" fill="none"
		d="M134.035 447.419 A22.500 22.500 0 0 0 144.785 439.419" transform=""></path>
	<path
		style="stroke: #ffffff; stroke-width: 1px; fill: #6b6b6b; display: block;"
		stroke="#ffffff" stroke-width="1" fill="#6b6b6b"
		d="M139.913 436.607 L149.656 442.232 L149.656 430.982 z" transform=""></path>
	<path
		style="stroke: #ffffff; stroke-width: 1px; fill: #6b6b6b; display: block;"
		stroke="#ffffff" stroke-width="1" fill="#6b6b6b"
		d="M110.656 436.607 L100.913 442.232 L100.913 430.982 z" transform=""></path>
	<path style="stroke: #ffffff; stroke-width: 4px; fill: none; display: block;"
		stroke="#ffffff" stroke-width="4" fill="none"
		d="M120.785 428.169 L125.285 432.669 L129.785 428.169" transform=""></path>
	<path style="stroke: #ffffff; stroke-width: 4px; fill: none; display: block;"
		stroke="#ffffff" stroke-width="4" fill="none"
		d="M125.285 429.669 L125.285 422.169" transform=""></path>
	<path style="stroke: #ffffff; stroke-width: 4px; fill: none; display: block;"
		stroke="#ffffff" stroke-width="4" fill="none"
		d="M120.285 417.669 L130.285 417.669" transform=""></path>
	<path style="stroke: #6b6b6b; stroke-width: 2px; fill: none; display: block;"
		stroke="#6b6b6b" stroke-width="2" fill="none"
		d="M120.785 428.169 L125.285 432.669 L129.785 428.169" transform=""></path>
	<path style="stroke: #6b6b6b; stroke-width: 2px; fill: none; display: block;"
		stroke="#6b6b6b" stroke-width="2" fill="none"
		d="M125.285 429.669 L125.285 422.169" transform=""></path>
	<path style="stroke: #6b6b6b; stroke-width: 2px; fill: none; display: block;"
		stroke="#6b6b6b" stroke-width="2" fill="none"
		d="M120.285 417.669 L130.285 417.669" transform=""></path>
		</g>
</svg>