<svg xmlns="http://www.w3.org/2000/svg">
 <!-- Created with SVG-edit - http://svg-edit.googlecode.com/ -->
 <g>
  <title>Layer 1</title>
  <circle fill="#ffff56" stroke="#ffaa56" stroke-width="3" cx="49.25" cy="52" r="21.0238" id="svg_1"/>
  <line fill="none" stroke="#ffaa56" stroke-width="3" x1="46.25" y1="21" x2="46.25" y2="3" id="svg_3"/>
  <line fill="none" stroke="#ffaa56" stroke-width="3" x1="62.25" y1="25" x2="79.25" y2="14" id="svg_4"/>
  <line fill="none" stroke="#ffaa56" stroke-width="3" x1="77.25" y1="37" x2="98.25" y2="28" id="svg_5"/>
  <line fill="none" stroke="#ffaa56" stroke-width="3" x1="80.25" y1="55" x2="95.25" y2="54" id="svg_6"/>
  <line fill="none" stroke="#ffaa56" stroke-width="3" x1="76.25" y1="66" x2="89.25" y2="84" id="svg_7"/>
  <line fill="none" stroke="#ffaa56" stroke-width="3" x1="59.25" y1="79" x2="60.25" y2="95" id="svg_8"/>
  <line fill="none" stroke="#ffaa56" stroke-width="3" x1="42.25" y1="78" x2="34.25" y2="92" id="svg_9"/>
  <line fill="none" stroke="#ffaa56" stroke-width="3" x1="22.25" y1="63" x2="6.25" y2="74" id="svg_10"/>
  <line fill="none" stroke="#ffaa56" stroke-width="3" x1="21.25" y1="45" x2="3.25" y2="45" id="svg_11"/>
  <line fill="none" stroke="#ffaa56" stroke-width="3" x1="27.25" y1="24" x2="20.25" y2="13" id="svg_12"/>
  <circle id="svg_16" r="1.11803" cy="45.25" cx="41.25" stroke-width="3" stroke="#ffaa56" fill="none"/>
  <circle id="svg_19" r="1.11803" cy="45.75" cx="56.25" stroke-width="3" stroke="#ffaa56" fill="none"/>
  <path d="m35.25,53.5c0.25,0.25 0.25,0.5 0.25,0.75c0,0.25 0.07322,0.32322 0.25,0.5c0.17678,0.17678 0,0.5 0,0.75c0,0.25 0,0.5 0,0.75c0,0.25 0.25,0.5 0.25,0.75c0,0.25 0.07322,0.32322 0.25,0.5c0.17678,0.17678 -0.17678,0.57322 0,0.75c0.17678,0.17678 0.07322,0.32322 0.25,0.5c0.17678,0.17678 0.25,0.25 0.25,0.5c0,0.25 0.25,0.25 0.25,0.5c0,0.25 0.07322,0.32322 0.25,0.5c0.17678,0.17678 0.07322,0.32322 0.25,0.5c0.17678,0.17678 0.32322,0.07322 0.5,0.25c0.17678,0.17678 0.07322,0.32322 0.25,0.5c0.17678,0.17678 0.26903,0.15433 0.5,0.25c0.32664,0.1353 0.42336,0.3647 0.75,0.5c0.23097,0.09567 0.57322,-0.17678 0.75,0c0.17678,0.17678 0.26903,0.15433 0.5,0.25c0.32664,0.1353 0.57322,0.07322 0.75,0.25c0.17678,0.17678 0.25,0.25 0.5,0.25c0.25,0 0.25,0.25 0.5,0.25c0.25,0 0.25,0.25 0.5,0.25c0.25,0 0.25,0.25 0.5,0.25c0.25,0 0.32322,0.07322 0.5,0.25c0.35355,0.35355 0.5,0.25 0.75,0.25c0.25,0 0.57322,-0.17677 0.75,0c0.17678,0.17677 0.25,0.25 0.5,0.25c0.25,0 0.5,0 0.75,0c0.25,0 0.5,0 0.75,0c0.25,0 0.5,0 0.75,0c0.25,0 0.5,0 0.75,0c0.25,0 0.5,0 0.75,0c0.25,0 0.5,0 0.75,0c0.25,0 0.5,0 0.75,0c0.5,0 0.67336,-0.1147 1,-0.25c0.23097,-0.09567 0.5,0 0.75,0c0.25,0 0.26903,-0.15433 0.5,-0.25c0.32664,-0.1353 0.53806,-0.05866 1,-0.25c0.32664,-0.1353 0.5,-0.25 0.75,-0.25c0.25,0 0.42336,-0.1147 0.75,-0.25c0.23097,-0.09567 0.57322,-0.07322 0.75,-0.25c0.17678,-0.17678 0.07322,-0.32322 0.25,-0.5c0.17678,-0.17678 0.32322,-0.32322 0.5,-0.5c0.17678,-0.17678 0.40433,-0.26903 0.5,-0.5c0.1353,-0.32664 0.5,-0.5 0.75,-0.75c0.25,-0.25 0.32322,-0.32322 0.5,-0.5c0.17678,-0.17678 0.40433,-0.01903 0.5,-0.25c0.1353,-0.32664 0.5,-0.25 0.75,-0.5c0.25,-0.25 0.32322,-0.57322 0.5,-0.75c0.17678,-0.17678 0.07322,-0.32322 0.25,-0.5c0.17678,-0.17678 0.07322,-0.32322 0.25,-0.5c0.17678,-0.17678 0.25,-0.25 0.25,-0.5c0,-0.25 0.25,-0.25 0.25,-0.5c0,-0.25 0.15433,-0.51903 0.25,-0.75c0.1353,-0.32664 0.15433,-0.51903 0.25,-0.75c0.1353,-0.32664 0.25,-0.5 0.25,-0.75l0,-0.25l0.25,-0.25" id="svg_20" stroke-width="3" stroke="#ffaa56" fill="none"/>
 </g>
</svg>